HIERARCHY
ROOT Hips
{
	OFFSET	0.00	0.00	0.00
	CHANNELS 6 Xposition Yposition Zposition Zrotation Xrotation Yrotation
	JOINT LeftUpperLeg
	{
		OFFSET	-0.060319	 0.002079	 0.072983
		CHANNELS 3 Zrotation Xrotation Yrotation
		JOINT LeftLowerLeg
		{
			OFFSET	 0.351798	-0.008011	 0.005146
			CHANNELS 3 Zrotation Xrotation Yrotation
			JOINT LeftFoot
			{
				OFFSET	 0.378666	 0.003828	-0.003777
				CHANNELS 3 Zrotation Xrotation Yrotation
				JOINT LeftToes
				{
					OFFSET	 0.084296	 0.047710	-0.003922
					CHANNELS 3 Zrotation Xrotation Yrotation
					End Site
					{
						OFFSET	 0.084296	 0.047710	-0.003922
					}
				}
			}
		}
	}
	JOINT RightUpperLeg
	{
		OFFSET	-0.060836	 0.002079	-0.072553
		CHANNELS 3 Zrotation Xrotation Yrotation
		JOINT RightLowerLeg
		{
			OFFSET	 0.351364	-0.008011	-0.018234
			CHANNELS 3 Zrotation Xrotation Yrotation
			JOINT RightFoot
			{
				OFFSET	 0.378545	 0.003824	-0.010315
				CHANNELS 3 Zrotation Xrotation Yrotation
				JOINT RightToes
				{
					OFFSET	 0.084392	 0.047660	 0.002026
					CHANNELS 3 Zrotation Xrotation Yrotation
					End Site
					{
						OFFSET	 0.084392	 0.047660	 0.002026
					}
				}
			}
		}
	}
	JOINT Character1_Spine
	{
		OFFSET	 0.022713	 0.008182	-0.000081
		CHANNELS 3 Zrotation Xrotation Yrotation
		JOINT Spine
		{
			OFFSET	 0.091343	 0.001755	-0.000000
			CHANNELS 3 Zrotation Xrotation Yrotation
			JOINT Chest
			{
				OFFSET	 0.087667	-0.000304	-0.000000
				CHANNELS 3 Zrotation Xrotation Yrotation
				JOINT LeftShoulder
				{
					OFFSET	 0.122367	-0.001395	 0.042227
					CHANNELS 3 Zrotation Xrotation Yrotation
					JOINT LeftUpperArm
					{
						OFFSET	 0.055437	-0.000000	 0.000001
						CHANNELS 3 Zrotation Xrotation Yrotation
						JOINT LeftLowerArm
						{
							OFFSET	 0.233777	 0.000017	 0.000012
							CHANNELS 3 Zrotation Xrotation Yrotation
							JOINT LeftHand
							{
								OFFSET	 0.162482	-0.000001	 0.000000
								CHANNELS 3 Zrotation Xrotation Yrotation
								JOINT LeftIndexProximal
								{
									OFFSET	 0.080750	 0.025713	-0.001428
									CHANNELS 3 Zrotation Xrotation Yrotation
									JOINT LeftIndexIntermediate
									{
										OFFSET	 0.024260	 0.002507	-0.001187
										CHANNELS 3 Zrotation Xrotation Yrotation
										JOINT LeftIndexDistal
										{
											OFFSET	 0.016097	 0.000118	-0.000458
											CHANNELS 3 Zrotation Xrotation Yrotation
											End Site
											{
												OFFSET	 0.016097	 0.000118	-0.000458
											}
										}
									}
								}
								JOINT LeftMiddleProximal
								{
									OFFSET	 0.080696	 0.005822	-0.006021
									CHANNELS 3 Zrotation Xrotation Yrotation
									JOINT LeftMiddleIntermediate
									{
										OFFSET	 0.025063	 0.001482	 0.003794
										CHANNELS 3 Zrotation Xrotation Yrotation
										JOINT LeftMiddleDistal
										{
											OFFSET	 0.019431	-0.000068	 0.000162
											CHANNELS 3 Zrotation Xrotation Yrotation
											End Site
											{
												OFFSET	 0.019431	-0.000068	 0.000162
											}
										}
									}
								}
								JOINT LeftLittleProximal
								{
									OFFSET	 0.065753	-0.027836	-0.002284
									CHANNELS 3 Zrotation Xrotation Yrotation
									JOINT LeftLittleIntermediate
									{
										OFFSET	 0.018097	 0.000133	-0.000014
										CHANNELS 3 Zrotation Xrotation Yrotation
										JOINT LeftLittleDistal
										{
											OFFSET	 0.013911	 0.000003	 0.000248
											CHANNELS 3 Zrotation Xrotation Yrotation
											End Site
											{
												OFFSET	 0.013911	 0.000003	 0.000248
											}
										}
									}
								}
								JOINT LeftRingProximal
								{
									OFFSET	 0.076793	-0.012626	-0.006246
									CHANNELS 3 Zrotation Xrotation Yrotation
									JOINT LeftRingIntermediate
									{
										OFFSET	 0.023683	-0.000754	 0.001098
										CHANNELS 3 Zrotation Xrotation Yrotation
										JOINT LeftRingDistal
										{
											OFFSET	 0.015908	 0.000167	-0.000861
											CHANNELS 3 Zrotation Xrotation Yrotation
											End Site
											{
												OFFSET	 0.015908	 0.000167	-0.000861
											}
										}
									}
								}
								JOINT LeftThumbProximal
								{
									OFFSET	 0.024761	 0.018266	 0.014236
									CHANNELS 3 Zrotation Xrotation Yrotation
									JOINT LeftThumbIntermediate
									{
										OFFSET	 0.032146	 0.001986	 0.001523
										CHANNELS 3 Zrotation Xrotation Yrotation
										JOINT LeftThumbDistal
										{
											OFFSET	 0.017566	-0.001003	 0.000085
											CHANNELS 3 Zrotation Xrotation Yrotation
											End Site
											{
												OFFSET	 0.017566	-0.001003	 0.000085
											}
										}
									}
								}
							}
						}
					}
				}
				JOINT Neck
				{
					OFFSET	 0.156851	 0.008298	 0.000287
					CHANNELS 3 Zrotation Xrotation Yrotation
					JOINT Head
					{
						OFFSET	 0.078083	-0.005535	-0.000000
						CHANNELS 3 Zrotation Xrotation Yrotation
						End Site
						{
							OFFSET	 0.078083	-0.005535	-0.000000
						}
					}
				}
				JOINT RightShoulder
				{
					OFFSET	 0.122455	-0.000150	-0.041994
					CHANNELS 3 Zrotation Xrotation Yrotation
					JOINT RightUpperArm
					{
						OFFSET	 0.055437	 0.000000	-0.000001
						CHANNELS 3 Zrotation Xrotation Yrotation
						JOINT RightLowerArm
						{
							OFFSET	 0.233779	 0.000017	-0.000013
							CHANNELS 3 Zrotation Xrotation Yrotation
							JOINT RightHand
							{
								OFFSET	 0.162480	-0.000001	 0.000002
								CHANNELS 3 Zrotation Xrotation Yrotation
								JOINT RightIndexProximal
								{
									OFFSET	 0.077459	 0.024774	 0.023877
									CHANNELS 3 Zrotation Xrotation Yrotation
									JOINT RightIndexIntermediate
									{
										OFFSET	 0.024233	-0.002230	-0.002009
										CHANNELS 3 Zrotation Xrotation Yrotation
										JOINT RightIndexDistal
										{
											OFFSET	 0.015886	 0.000001	-0.002642
											CHANNELS 3 Zrotation Xrotation Yrotation
											End Site
											{
												OFFSET	 0.015886	 0.000001	-0.002642
											}
										}
									}
								}
								JOINT RightMiddleProximal
								{
									OFFSET	 0.077341	 0.004360	 0.024111
									CHANNELS 3 Zrotation Xrotation Yrotation
									JOINT RightMiddleIntermediate
									{
										OFFSET	 0.025355	-0.000680	 0.001169
										CHANNELS 3 Zrotation Xrotation Yrotation
										JOINT RightMiddleDistal
										{
											OFFSET	 0.019416	-0.000417	-0.000705
											CHANNELS 3 Zrotation Xrotation Yrotation
											End Site
											{
												OFFSET	 0.019416	-0.000417	-0.000705
											}
										}
									}
								}
								JOINT RightLittleProximal
								{
									OFFSET	 0.065019	-0.027722	 0.010366
									CHANNELS 3 Zrotation Xrotation Yrotation
									JOINT RightLittleIntermediate
									{
										OFFSET	 0.018098	-0.000144	-0.000053
										CHANNELS 3 Zrotation Xrotation Yrotation
										JOINT RightLittleDistal
										{
											OFFSET	 0.013886	 0.000267	 0.000828
											CHANNELS 3 Zrotation Xrotation Yrotation
											End Site
											{
												OFFSET	 0.013886	 0.000267	 0.000828
											}
										}
									}
								}
								JOINT RightRingProximal
								{
									OFFSET	 0.074304	-0.013711	 0.019656
									CHANNELS 3 Zrotation Xrotation Yrotation
									JOINT RightRingIntermediate
									{
										OFFSET	 0.023458	-0.000008	-0.003508
										CHANNELS 3 Zrotation Xrotation Yrotation
										JOINT RightRingDistal
										{
											OFFSET	 0.015894	-0.001033	 0.000378
											CHANNELS 3 Zrotation Xrotation Yrotation
											End Site
											{
												OFFSET	 0.015894	-0.001033	 0.000378
											}
										}
									}
								}
								JOINT RightThumbProximal
								{
									OFFSET	 0.026339	 0.020861	-0.004527
									CHANNELS 3 Zrotation Xrotation Yrotation
									JOINT RightThumbIntermediate
									{
										OFFSET	 0.032030	 0.001128	 0.000602
										CHANNELS 3 Zrotation Xrotation Yrotation
										JOINT RightThumbDistal
										{
											OFFSET	 0.017586	 0.000511	 0.000152
											CHANNELS 3 Zrotation Xrotation Yrotation
											End Site
											{
												OFFSET	 0.017586	 0.000511	 0.000152
											}
										}
									}
								}
							}
						}
					}
				}
			}
		}
	}
}
MOTION
Frames:    6
Frame Time: 0.1428571
 0.068577	 0.847017	-0.865211	-90.040630	-85.977910	 179.755900	-5.994279	 0.058703	-177.684000	-9.612426	 0.940591	-8.521749	 31.258850	 16.314800	-13.680430	 62.519460	-3.188659	 0.006148	-2.090352	-0.181054	 179.038600	 2.800299	 0.443886	 7.728398	 27.187110	-6.645061	 7.366714	 62.519680	-0.000152	 0.006819	 4.902136	 0.017393	 0.202796	-2.018172	 0.080869	 0.953199	-17.352180	-0.847073	 0.059906	 18.089590	 0.786613	-90.318680	 19.721130	-7.437806	-3.395612	 27.429050	-8.822103	 5.533892	-19.869520	-72.909380	-73.917600	 0.400901	 11.965310	-4.748454	 0.477874	 0.266074	 1.215439	-0.546671	 0.281770	 7.091043	-6.028159	 6.440647	 2.122423	 1.345341	-3.951414	-7.945199	-1.888770	-2.723091	 6.121307	-24.889980	-9.392361	-17.565870	-2.647219	 2.127349	 1.980443	 0.159782	-1.149520	 1.319157	-14.969960	-7.591256	-10.839200	-0.178069	 2.674636	-6.625014	 0.386537	-3.212840	 3.918352	 164.427200	 55.870460	-127.805100	 6.634563	-0.414953	-3.399435	-4.256975	 0.117892	-1.694328	 28.014920	-1.230081	-6.556346	-2.617094	 5.478977	 9.605085	 18.089590	 0.786612	 89.678790	 2.761566	 6.170179	 8.795848	 22.598470	-11.435790	 3.936121	 21.137810	 44.781110	 24.466230	-177.389600	-8.831868	-175.013600	-0.016568	-3.219298	-3.883214	 0.855641	-4.408458	 1.686657	 177.319100	-9.036760	-172.642800	 1.241053	-1.979778	-4.426968	-0.113596	 0.528879	-4.788302	 158.169100	-26.491550	 168.876600	 1.386256	 2.855342	 4.611974	 0.094532	 2.019469	-1.637273	 166.453600	-25.945450	 166.554900	 2.005292	-2.321953	 9.005940	-2.970803	-0.971437	-2.537858	 7.912983	 55.262230	 25.182600	 0.027068	 3.778531	-1.271253	 1.596345	-1.114234	-1.334432
 0.070276	 0.856016	-0.848280	-107.147900	-85.935620	 162.689100	-7.354352	-0.016098	-177.264600	-9.013478	 0.720033	-9.076817	 40.284330	 12.127210	-14.487750	 62.519460	-3.188659	 0.006148	-4.076482	-0.258786	 179.251500	 4.773172	 1.190820	 9.323447	 21.474670	-0.027174	 3.905745	 62.519680	-0.000152	 0.006819	 4.902136	 0.017393	 0.202796	-3.888757	 0.038232	 0.734717	-17.352180	-0.847073	 0.059906	 18.089590	 0.786613	-90.318680	 27.628970	-1.601625	 5.264484	 20.912630	-12.035920	 5.270927	-6.721138	-69.673070	-54.833490	 0.400901	 11.965310	-4.748454	 0.477874	 0.266074	 1.215439	-0.546671	 0.281770	 7.091043	-6.028159	 6.440647	 2.122423	 1.345341	-3.951414	-7.945199	-1.888770	-2.723091	 6.121307	-24.889980	-9.392361	-17.565870	-2.647219	 2.127349	 1.980443	 0.159782	-1.149520	 1.319157	-14.969960	-7.591256	-10.839200	-0.178069	 2.674636	-6.625014	 0.386537	-3.212840	 3.918352	 164.427200	 55.870460	-127.805100	 6.634563	-0.414953	-3.399435	-4.256975	 0.117892	-1.694328	 27.953970	-0.989746	-6.606991	-2.926825	 4.620649	 9.859829	 18.089590	 0.786612	 89.678790	 10.880770	 3.244161	-2.598632	 16.838290	-23.720770	 6.412645	 38.162080	 56.060670	 7.361603	-177.389600	-8.831868	-175.013600	-0.016568	-3.219298	-3.883214	 0.855641	-4.408458	 1.686657	 177.319100	-9.036760	-172.642800	 1.241053	-1.979778	-4.426968	-0.113596	 0.528879	-4.788302	 158.169100	-26.491550	 168.876600	 1.386256	 2.855342	 4.611974	 0.094532	 2.019469	-1.637273	 166.453600	-25.945450	 166.554900	 2.005292	-2.321953	 9.005940	-2.970803	-0.971437	-2.537858	 7.912983	 55.262230	 25.182600	 0.027068	 3.778531	-1.271253	 1.596345	-1.114234	-1.334432
 0.071343	 0.866036	-0.839200	-101.624800	-85.050350	 168.213800	-6.423601	-0.017410	-176.850100	-7.080929	 0.687145	-11.856870	 34.933670	-4.386674	-1.377536	 62.519460	-3.188659	 0.006148	-4.325051	-0.273617	 179.376000	 7.232098	 1.915876	 10.503210	 15.366070	-7.089896	 5.578602	 62.519680	-0.000152	 0.006819	 4.902136	 0.017393	 0.202796	-4.543015	 0.029797	 0.734047	-17.352180	-0.847073	 0.059906	 18.089590	 0.786613	-90.318680	 24.689620	 4.288280	 12.164060	 32.533370	-59.929050	 29.435270	 2.541545	-25.496810	-23.404590	 0.400901	 11.965310	-4.748454	 0.477874	 0.266074	 1.215439	-0.546671	 0.281770	 7.091043	-6.028159	 6.440647	 2.122423	 1.345341	-3.951414	-7.945199	-1.888770	-2.723091	 6.121307	-24.889980	-9.392361	-17.565870	-2.647219	 2.127349	 1.980443	 0.159782	-1.149520	 1.319157	-14.969960	-7.591256	-10.839200	-0.178069	 2.674636	-6.625014	 0.386537	-3.212840	 3.918352	 164.427200	 55.870460	-127.805100	 6.634563	-0.414953	-3.399435	-4.256975	 0.117892	-1.694328	 30.301070	-1.040544	-6.822971	-4.784130	 5.045333	 9.946869	 18.089590	 0.786612	 89.678790	 18.663730	-3.117778	-12.713540	 23.349400	-59.680120	 20.041960	 162.503700	 48.258360	-120.722700	-177.389600	-8.831868	-175.013600	-0.016568	-3.219298	-3.883214	 0.855641	-4.408458	 1.686657	 177.319100	-9.036760	-172.642800	 1.241053	-1.979778	-4.426968	-0.113596	 0.528879	-4.788302	 158.169100	-26.491550	 168.876600	 1.386256	 2.855342	 4.611974	 0.094532	 2.019469	-1.637273	 166.453600	-25.945450	 166.554900	 2.005292	-2.321953	 9.005940	-2.970803	-0.971437	-2.537858	 7.912983	 55.262230	 25.182600	 0.027068	 3.778531	-1.271253	 1.596345	-1.114234	-1.334432
 0.071509	 0.864095	-0.841394	-104.210300	-85.339190	 165.631300	-6.771719	-0.023457	-176.946200	-7.238499	 0.615503	-10.980120	 35.222260	-1.000546	-3.694282	 62.519460	-3.188659	 0.006148	-4.524047	-0.288649	 179.528500	 7.652262	 1.895983	 9.731471	 18.518030	-13.745650	 8.136571	 62.519680	-0.000152	 0.006819	 4.902136	 0.017393	 0.202796	-4.322592	 0.016511	 0.371450	-17.352180	-0.847073	 0.059906	 18.089590	 0.786613	-90.318680	 29.844460	 4.820936	 10.969730	 31.187060	-64.373310	 29.063040	-8.258484	-49.025790	-27.207160	 0.400901	 11.965310	-4.748454	 0.477874	 0.266074	 1.215439	-0.546671	 0.281770	 7.091043	-6.028159	 6.440647	 2.122423	 1.345341	-3.951414	-7.945199	-1.888770	-2.723091	 6.121307	-24.889980	-9.392361	-17.565870	-2.647219	 2.127349	 1.980443	 0.159782	-1.149520	 1.319157	-14.969960	-7.591256	-10.839200	-0.178069	 2.674636	-6.625014	 0.386537	-3.212840	 3.918352	 164.427200	 55.870460	-127.805100	 6.634563	-0.414953	-3.399435	-4.256975	 0.117892	-1.694328	 30.937060	-0.914560	-6.113654	-5.008389	 4.543504	 10.242500	 18.089590	 0.786612	 89.678790	 14.783710	-1.517523	-10.169790	 158.693800	-0.576657	 179.019500	 9.983657	-76.994380	 65.170650	-177.389600	-8.831868	-175.013600	-0.016568	-3.219298	-3.883214	 0.855641	-4.408458	 1.686657	 177.319100	-9.036760	-172.642800	 1.241053	-1.979778	-4.426968	-0.113596	 0.528879	-4.788302	 158.169100	-26.491550	 168.876600	 1.386256	 2.855342	 4.611974	 0.094532	 2.019469	-1.637273	 166.453600	-25.945450	 166.554900	 2.005292	-2.321953	 9.005940	-2.970803	-0.971437	-2.537858	 7.912983	 55.262230	 25.182600	 0.027068	 3.778531	-1.271253	 1.596345	-1.114234	-1.334432
 0.070289	 0.854049	-0.848606	-92.414250	-84.596770	 177.392900	-6.593160	-0.031624	-176.759500	-12.451180	 1.821554	-12.434550	 46.634260	-4.391411	-0.374043	 62.519460	-3.188659	 0.006148	-3.060199	-0.213336	 178.944000	 7.133132	 1.872801	 11.739250	 22.189430	-4.860184	 5.825115	 62.519680	-0.000152	 0.006819	 4.902136	 0.017393	 0.202796	-2.296992	 0.060472	 0.756514	-17.352180	-0.847073	 0.059906	 18.089590	 0.786613	-90.318680	 38.926500	-4.578331	-1.241452	 18.894520	-60.789440	 16.937160	 3.893018	-46.896990	-44.438350	 0.400901	 11.965310	-4.748454	 0.477874	 0.266074	 1.215439	-0.546671	 0.281770	 7.091043	-6.028159	 6.440647	 2.122423	 1.345341	-3.951414	-7.945199	-1.888770	-2.723091	 6.121307	-24.889980	-9.392361	-17.565870	-2.647219	 2.127349	 1.980443	 0.159782	-1.149520	 1.319157	-14.969960	-7.591256	-10.839200	-0.178069	 2.674636	-6.625014	 0.386537	-3.212840	 3.918352	 164.427200	 55.870460	-127.805100	 6.634563	-0.414953	-3.399435	-4.256975	 0.117892	-1.694328	 30.550270	-1.127334	-6.516869	-5.679079	 6.434653	 9.888467	 18.089590	 0.786612	 89.678790	 10.117960	 3.507742	 6.122023	 172.751800	-6.351851	 178.946800	 173.199000	-45.601610	-140.360400	-177.389600	-8.831868	-175.013600	-0.016568	-3.219298	-3.883214	 0.855641	-4.408458	 1.686657	 177.319100	-9.036760	-172.642800	 1.241053	-1.979778	-4.426968	-0.113596	 0.528879	-4.788302	 158.169100	-26.491550	 168.876600	 1.386256	 2.855342	 4.611974	 0.094532	 2.019469	-1.637273	 166.453600	-25.945450	 166.554900	 2.005292	-2.321953	 9.005940	-2.970803	-0.971437	-2.537858	 7.912983	 55.262230	 25.182600	 0.027068	 3.778531	-1.271253	 1.596345	-1.114234	-1.334432
 0.068171	 0.845600	-0.867832	-89.781590	-84.017520	-179.986300	-5.592968	 0.042841	-177.269800	-11.150090	 1.898574	-13.562260	 46.147510	-13.085970	 8.154627	 62.519460	-3.188659	 0.006148	-1.341554	-0.159878	 178.562300	 7.044078	 1.557764	 11.979320	 23.891400	 9.953511	-0.324091	 62.519680	-0.000152	 0.006819	 4.902136	 0.017393	 0.202796	-2.054585	 0.072453	 0.860401	-17.352180	-0.847073	 0.059906	 18.089590	 0.786613	-90.318680	 29.325040	-10.975890	-12.114320	 17.193930	-19.124980	 6.346095	-1.970969	-33.465640	 66.937970	 0.400901	 11.965310	-4.748454	 0.477874	 0.266074	 1.215439	-0.546671	 0.281770	 7.091043	-6.028159	 6.440647	 2.122423	 1.345341	-3.951414	-7.945199	-1.888770	-2.723091	 6.121307	-24.889980	-9.392361	-17.565870	-2.647219	 2.127349	 1.980443	 0.159782	-1.149520	 1.319157	-14.969960	-7.591256	-10.839200	-0.178069	 2.674636	-6.625014	 0.386537	-3.212840	 3.918352	 164.427200	 55.870460	-127.805100	 6.634563	-0.414953	-3.399435	-4.256975	 0.117892	-1.694328	 30.450600	-1.268525	-6.630444	-4.997716	 7.882435	 9.957905	 18.089590	 0.786612	 89.678790	 3.778093	 4.434924	 16.980970	 14.889560	-77.202480	 14.422750	 171.967800	 60.551970	-136.214500	-177.389600	-8.831868	-175.013600	-0.016568	-3.219298	-3.883214	 0.855641	-4.408458	 1.686657	 177.319100	-9.036760	-172.642800	 1.241053	-1.979778	-4.426968	-0.113596	 0.528879	-4.788302	 158.169100	-26.491550	 168.876600	 1.386256	 2.855342	 4.611974	 0.094532	 2.019469	-1.637273	 166.453600	-25.945450	 166.554900	 2.005292	-2.321953	 9.005940	-2.970803	-0.971437	-2.537858	 7.912983	 55.262230	 25.182600	 0.027068	 3.778531	-1.271253	 1.596345	-1.114234	-1.334432
